# xmcd CD database file
#
# Track frame offsets:
#	150
#	11548
#	68385
#	123755
#	146693
#	186583
#	225018
#	259975
#	303045
#	343307
#
# Disc length: 4721 seconds
#
# Revision: 2
# Processed by: cddbd v1.5.2PL0 Copyright (c) Steve Scherf et al.
# Submitted via: CDex 1.77
#
DISCID=80126f0a
DTITLE=Musica Jazz (Magazine) - Archie Shepp and NY Contemporary Five - Sound Barrier
DYEAR=2017
DGENRE=Jazz
TTITLE0=Monk's Mood
TTITLE1=Nettus
TTITLE2=For Helved
TTITLE3=Funeral
TTITLE4=Wo Wo
TTITLE5=Sound Barrier
TTITLE6=Consequences
TTITLE7=Rufus
TTITLE8=Trio
TTITLE9=Crepuscule with Nellie
EXTD=YEAR: 2017
EXTT0=
EXTT1=
EXTT2=
EXTT3=
EXTT4=
EXTT5=
EXTT6=
EXTT7=
EXTT8=
EXTT9=
PLAYORDER=
